<svg width="16" height="18" viewBox="0 0 16 18" fill="none" xmlns="http://www.w3.org/2000/svg">
    <path fill-rule="evenodd" clip-rule="evenodd" d="M0 10.5C0 9.39543 0.895431 8.5 2 8.5H14C15.1046 8.5 16 9.39543 16 10.5V16C16 17.1046 15.1046 18 14 18H2C0.895431 18 0 17.1046 0 16V10.5ZM8.56499 13.39C9.11339 13.1668 9.5 12.6286 9.5 12C9.5 11.1716 8.82843 10.5 8 10.5C7.17157 10.5 6.5 11.1716 6.5 12C6.5 12.6286 6.88661 13.1668 7.43501 13.39L7 16H9L8.56499 13.39Z" fill="white"/>
    <path d="M8 0C4.68629 0 2 2.68629 2 6V10H5V6C5 4.34315 6.34315 3 8 3C9.65685 3 11 4.34315 11 6V10H14V6C14 2.68629 11.3137 0 8 0Z" fill="red"/>
</svg>
