<svg width="16" height="10" viewBox="0 0 16 10" fill="none" xmlns="http://www.w3.org/2000/svg">
<path d="M1.27231 3.58578C0.491261 2.80473 0.491261 1.5384 1.27231 0.757356C2.05336 -0.0236923 3.31969 -0.0236923 4.10074 0.757356L9.75759 6.41421C10.5386 7.19526 10.5386 8.46159 9.75759 9.24264C8.97654 10.0237 7.71021 10.0237 6.92916 9.24264L1.27231 3.58578Z" fill="#282828"/>
<path d="M9.75759 9.24264C8.97654 10.0237 7.71021 10.0237 6.92916 9.24264C6.14812 8.46159 6.14812 7.19526 6.92916 6.41421L12.586 0.757356C13.3671 -0.0236921 14.6334 -0.0236923 15.4144 0.757356C16.1955 1.5384 16.1955 2.80473 15.4144 3.58578L9.75759 9.24264Z" fill="#282828"/>
</svg>
