<svg width="132" height="42" viewBox="0 0 132 42" fill="none" xmlns="http://www.w3.org/2000/svg">
<path d="M130.446 0.290222C131.152 0.290222 131.823 0.957449 131.823 1.69881V17.1562C131.823 17.4157 131.576 17.6752 131.293 17.5269L115.831 10.3357C114.525 9.70553 114.172 9.70553 112.901 10.3357L97.4026 17.5269C97.1202 17.6752 96.873 17.4157 96.873 17.1562V1.69881C96.873 0.957449 97.5438 0.290222 98.2499 0.290222H130.446Z" fill="#F59D0E"/>
<path d="M97.7203 27.2016L113.677 19.7509C114.136 19.5656 114.56 19.5656 115.019 19.7509L131.011 27.2016C131.858 27.6094 131.646 28.2025 131.011 28.499L115.337 35.9127C114.525 36.2833 114.172 36.2833 113.36 35.9127L97.685 28.499C97.0496 28.2025 96.873 27.6094 97.7203 27.2016Z" fill="#F59D0E"/>
<path d="M23.4075 1.66174L23.231 2.47724L16.1704 28.2396C15.9233 29.1663 15.6055 30.0189 15.2525 30.7973C14.7936 31.7982 14.264 32.5395 13.6286 33.0955C13.0284 33.6516 12.3224 34.0593 11.5104 34.3929C10.7337 34.6895 9.74524 34.8377 8.54494 34.8377C6.8504 34.8377 5.15585 34.43 3.3907 33.6145C2.82585 33.355 2.47282 33.0955 2.33161 32.9102C2.2257 32.7249 2.2257 32.5024 2.29631 32.243L3.70843 28.6103C3.74373 28.4991 3.81434 28.425 3.92025 28.3879C4.02615 28.3508 4.13206 28.3137 4.16737 28.2767C4.30858 28.2767 4.5557 28.3879 4.90873 28.6103C6.00312 29.2775 6.99161 29.6482 7.80358 29.6482C8.68615 29.6482 9.46282 29.3517 10.063 28.7956C10.6631 28.2767 11.1221 27.4241 11.4045 26.3121L11.7928 24.7181H8.75675C8.54494 24.7181 8.33312 24.5699 8.22721 24.2733L0.35464 2.40311L0.142822 1.58761C0.142822 1.29106 0.601761 1.10572 1.48434 0.994515L5.61479 0.623834C5.756 0.586766 5.89721 0.549698 6.00312 0.549698C6.14433 0.549698 6.21494 0.549698 6.25024 0.549698C6.56797 0.549698 6.74448 0.586766 6.81509 0.69797C6.85039 0.772107 6.9563 1.03158 7.13282 1.51347L10.6631 13.0787L12.5695 19.9734H12.7813L14.3699 13.0787L17.2295 1.62467C17.2648 1.43933 17.3001 1.17986 17.406 0.920379C17.5119 0.623834 17.759 0.51263 18.218 0.549698L22.4543 1.10572C23.0898 1.17986 23.4075 1.40227 23.4075 1.66174ZM48.6138 40.8428C48.6138 41.51 48.2961 41.8066 47.696 41.8066H43.7067C43.2831 41.8066 43.0007 41.6954 42.9301 41.4729C42.8242 41.2505 42.7889 41.0652 42.7889 40.8428V34.0222H26.267C25.8434 34.0222 25.561 33.911 25.4904 33.6886C25.3845 33.4662 25.3492 33.2438 25.3492 33.0585V1.95829C25.3492 1.51347 25.4551 1.25399 25.6669 1.14279C25.8787 1.03158 26.0905 0.994515 26.267 0.994515H30.6799C31.1036 0.994515 31.3507 1.10572 31.4566 1.32813C31.5272 1.55054 31.5978 1.77295 31.5978 1.95829V28.7956H39.6116V1.95829C39.6116 1.51347 39.7175 1.25399 39.9293 1.14279C40.1411 1.03158 40.3529 0.994515 40.5295 0.994515H44.9423C45.366 0.994515 45.6484 1.10572 45.719 1.32813C45.8249 1.55054 45.8602 1.77295 45.8602 1.95829V28.7956H47.696C48.2961 28.7956 48.6138 29.1292 48.6138 29.7594V40.8428ZM69.0896 31.7611C69.0896 31.9094 69.0543 32.0576 68.9484 32.1688C68.8425 32.3171 68.7366 32.4283 68.5247 32.5766C67.7481 33.2438 66.689 33.7998 65.3828 34.2076C64.0766 34.6153 62.7704 34.8377 61.3935 34.8377C58.1457 34.8377 55.5685 33.874 53.6622 31.9835C52.1088 30.4637 50.9791 28.2396 50.3084 25.3854C49.8141 23.3095 49.567 20.826 49.567 17.9717C49.567 11.2995 50.9085 6.4806 53.5563 3.51515C55.5685 1.29106 58.1104 0.179016 61.2523 0.179016C62.5232 0.179016 63.7588 0.364357 64.9591 0.772107C66.1594 1.14279 67.2185 1.73588 68.1364 2.58845C68.7013 3.1074 68.9837 3.51515 68.9837 3.84876C68.9837 3.9229 68.9131 4.14531 68.7719 4.47892L67.0773 7.1849C66.9008 7.48144 66.7243 7.66678 66.5478 7.66678C66.4419 7.66678 66.3007 7.59265 66.0888 7.48144C65.9123 7.37024 65.7358 7.25903 65.5946 7.11076C64.9238 6.55474 64.2884 6.10992 63.7235 5.81338C63.1234 5.51683 62.4879 5.36856 61.7819 5.36856C60.2285 5.36856 58.9929 5.88751 58.0751 6.92542C57.369 7.70385 56.8748 8.89003 56.557 10.484C56.2393 12.0779 56.0981 14.4503 56.0981 17.6381C56.0981 19.3803 56.204 20.9743 56.3805 22.494C56.6629 24.8664 57.1925 26.5715 57.8985 27.6095C58.2869 28.1655 58.8164 28.6103 59.4872 29.018C60.1579 29.4258 60.9699 29.6482 61.9231 29.6482C63.1587 29.6482 64.3943 29.2405 65.7005 28.425C65.877 28.3137 66.0888 28.1655 66.3007 28.0543C66.5125 27.906 66.689 27.8319 66.8302 27.8319C67.042 27.8319 67.2538 28.0172 67.4304 28.3137L68.8425 31.0197C69.019 31.3163 69.0896 31.5757 69.0896 31.7611ZM91.0834 24.1992C91.0834 26.6457 90.5538 28.6844 89.4594 30.2413C87.7649 32.7619 84.7288 34.0222 80.4219 34.0222H72.055C71.6314 34.0222 71.3843 33.911 71.2784 33.6886C71.2078 33.4662 71.1372 33.2438 71.1372 33.0585V1.95829C71.1372 1.51347 71.2431 1.25399 71.4902 1.14279C71.702 1.03158 71.8785 0.994516 72.055 0.994516H88.1532C88.6122 0.994516 88.824 1.17986 88.824 1.51347L88.7181 1.99536L87.8002 5.4427C87.7296 5.70217 87.6237 5.88751 87.4825 5.99872C87.3412 6.14699 87.0941 6.22113 86.7764 6.22113H77.3858V14.1166H80.5984C81.9399 14.1166 83.2108 14.2278 84.4111 14.4873C85.5761 14.7097 86.6352 15.1916 87.6237 15.8959C88.6122 16.6002 89.3888 17.5269 89.989 18.676C90.695 20.1588 91.0834 22.0122 91.0834 24.1992ZM84.87 24.0509C84.87 22.494 84.4817 21.3079 83.6697 20.5294C82.8931 19.7139 81.4809 19.3062 79.504 19.3062H77.3858V28.7956H79.045C80.8102 28.7956 82.1517 28.5732 82.999 28.0913C84.2346 27.387 84.87 26.0155 84.87 24.0509Z" fill="white"/>
</svg>
