<svg width="18" height="18" viewBox="0 0 18 18" fill="none" xmlns="http://www.w3.org/2000/svg">
<path fill-rule="evenodd" clip-rule="evenodd" d="M7.92215 15.3443C12.0213 15.3443 15.3443 12.0213 15.3443 7.92215C15.3443 3.82301 12.0213 0.5 7.92215 0.5C3.82301 0.5 0.5 3.82301 0.5 7.92215C0.5 12.0213 3.82301 15.3443 7.92215 15.3443ZM7.92215 11.6332C9.97173 11.6332 11.6332 9.97173 11.6332 7.92215C11.6332 5.87258 9.97173 4.21108 7.92215 4.21108C5.87258 4.21108 4.21108 5.87258 4.21108 7.92215C4.21108 9.97173 5.87258 11.6332 7.92215 11.6332Z" fill="#282828"/>
<path d="M11.7083 14.3324C10.9836 13.6078 10.9836 12.4329 11.7083 11.7083C12.4329 10.9837 13.6078 10.9837 14.3324 11.7083L16.9565 14.3324C17.6812 15.0571 17.6812 16.2319 16.9565 16.9565C16.2319 17.6812 15.057 17.6812 14.3324 16.9565L11.7083 14.3324Z" fill="#282828"/>
</svg>
