<svg width="16" height="16" viewBox="0 0 16 16" fill="none" xmlns="http://www.w3.org/2000/svg">
<path d="M0 2C0 0.895431 0.895431 0 2 0C3.10457 0 4 0.895431 4 2V14C4 15.1046 3.10457 16 2 16C0.895431 16 0 15.1046 0 14V2Z" fill="#282828"/>
<path d="M6 2C6 0.895431 6.89543 0 8 0C9.10457 0 10 0.895431 10 2V14C10 15.1046 9.10457 16 8 16C6.89543 16 6 15.1046 6 14V2Z" fill="#282828"/>
<path d="M12 2C12 0.895431 12.8954 0 14 0C15.1046 0 16 0.895431 16 2V14C16 15.1046 15.1046 16 14 16C12.8954 16 12 15.1046 12 14V2Z" fill="#282828"/>
</svg>
