<svg width="17" height="18" viewBox="0 0 17 18" fill="none" xmlns="http://www.w3.org/2000/svg">
<path d="M6.28568 9H10.7144V12.375H6.28568V9Z" fill="#282828"/>
<path d="M1.93598 13.0822C2.10413 12.6551 2.51125 12.375 2.96399 12.375H14.036C14.4888 12.375 14.8959 12.6551 15.064 13.0822L16.4621 16.6337C16.7204 17.2898 16.2368 18 15.5316 18H1.46836C0.763236 18 0.279578 17.2898 0.53787 16.6337L1.93598 13.0822Z" fill="#282828"/>
<path d="M14.036 5.625C14.036 8.7316 11.5575 11.25 8.50006 11.25C5.44264 11.25 2.96411 8.7316 2.96411 5.625C2.96411 2.5184 5.44264 0 8.50006 0C11.5575 0 14.036 2.5184 14.036 5.625Z" fill="#282828"/>
</svg>
