<svg width="17" height="16" viewBox="0 0 17 16" fill="none" xmlns="http://www.w3.org/2000/svg">
<path d="M7.536 0.688846C7.83943 -0.229617 9.16058 -0.229614 9.464 0.688848L10.7757 4.65931C10.9114 5.07006 11.3006 5.34816 11.7397 5.34816H15.9844C16.9664 5.34816 17.3746 6.58394 16.5802 7.15158L13.1462 9.60547C12.7909 9.85932 12.6423 10.3093 12.7779 10.72L14.0896 14.6905C14.3931 15.609 13.3242 16.3727 12.5299 15.8051L9.09579 13.3512C8.74053 13.0973 8.25947 13.0973 7.90422 13.3512L4.47014 15.8051C3.67576 16.3727 2.60693 15.609 2.91036 14.6905L4.22206 10.72C4.35775 10.3093 4.2091 9.85932 3.85384 9.60547L0.419768 7.15158C-0.374613 6.58394 0.0336467 5.34816 1.01556 5.34816H5.2603C5.69942 5.34816 6.0886 5.07006 6.2243 4.65931L7.536 0.688846Z" fill="white"/>
</svg>
