<svg width="16" height="16" viewBox="0 0 16 16" fill="none" xmlns="http://www.w3.org/2000/svg">
<path d="M0.612039 3.56722C-0.204013 2.75117 -0.204013 1.42809 0.612039 0.612039C1.42809 -0.204013 2.75117 -0.204013 3.56722 0.612039L15.388 12.4328C16.204 13.2488 16.204 14.5719 15.388 15.388C14.5719 16.204 13.2488 16.204 12.4328 15.388L0.612039 3.56722Z" fill="#FF5100"/>
<path d="M3.56722 15.388C2.75117 16.204 1.42809 16.204 0.612039 15.388C-0.204013 14.5719 -0.204013 13.2488 0.612039 12.4328L12.4328 0.612039C13.2488 -0.204013 14.5719 -0.204013 15.388 0.612039C16.204 1.42809 16.204 2.75117 15.388 3.56722L3.56722 15.388Z" fill="#FF5100"/>
</svg>
