<svg width="19" height="14" viewBox="0 0 19 14" fill="none" xmlns="http://www.w3.org/2000/svg">
<path d="M1.44364 6.99996C0.662587 6.21892 0.662587 4.95259 1.44364 4.17154C2.22468 3.39049 3.49101 3.39049 4.27206 4.17154L9.92892 9.82839C10.71 10.6094 10.71 11.8758 9.92892 12.6568C9.14787 13.4379 7.88154 13.4379 7.10049 12.6568L1.44364 6.99996Z" fill="#49AB26"/>
<path d="M15.5858 1.34311C16.3668 0.562062 17.6332 0.562062 18.4142 1.34311C19.1952 2.12416 19.1952 3.39049 18.4142 4.17154L9.92892 12.6568C9.14787 13.4379 7.88154 13.4379 7.10049 12.6568C6.31944 11.8758 6.31944 10.6094 7.10049 9.82839L15.5858 1.34311Z" fill="#49AB26"/>
</svg>
