<svg width="18" height="18" viewBox="0 0 18 18" fill="none" xmlns="http://www.w3.org/2000/svg">
<path d="M8.04906 1.6662C8.34841 0.744891 9.65182 0.744893 9.95117 1.6662L11.2453 5.64898C11.3791 6.06101 11.7631 6.33997 12.1963 6.33997H16.3841C17.3528 6.33997 17.7556 7.57958 16.9718 8.14898L13.5839 10.6105C13.2334 10.8651 13.0867 11.3165 13.2206 11.7285L14.5147 15.7113C14.814 16.6326 13.7596 17.3987 12.9759 16.8293L9.5879 14.3678C9.23741 14.1132 8.76282 14.1132 8.41233 14.3678L5.02437 16.8293C4.24066 17.3987 3.18618 16.6326 3.48553 15.7113L4.77962 11.7285C4.91349 11.3165 4.76683 10.8651 4.41635 10.6105L1.02839 8.14898C0.244675 7.57958 0.647453 6.33997 1.61618 6.33997H5.80392C6.23714 6.33997 6.6211 6.06101 6.75497 5.64898L8.04906 1.6662Z" fill="#7E0EF5"/>
</svg>
