<svg width="18" height="18" viewBox="0 0 18 18" fill="none" xmlns="http://www.w3.org/2000/svg">
<path d="M6.78568 9.00002H11.2144V12.3216H6.78568V9.00002Z" fill="#F59D0E"/>
<path d="M2.43598 13.0176C2.60413 12.5972 3.01125 12.3216 3.46399 12.3216H14.536C14.9888 12.3216 15.3959 12.5972 15.564 13.0176L16.9514 16.4861C17.2142 17.143 16.7304 17.8575 16.023 17.8575H1.97703C1.26957 17.8575 0.785811 17.143 1.04856 16.4861L2.43598 13.0176Z" fill="#F59D0E"/>
<path d="M14.536 5.67846C14.536 8.73587 12.0575 11.2144 9.00006 11.2144C5.94264 11.2144 3.46411 8.73587 3.46411 5.67846C3.46411 2.62104 5.94264 0.142517 9.00006 0.142517C12.0575 0.142517 14.536 2.62104 14.536 5.67846Z" fill="#F59D0E"/>
</svg>
